<svg width="48" height="48" viewBox="0 0 32 32" fill="none" xmlns="http://www.w3.org/2000/svg">
<g clip-path="url(#clip0_1_14)">
<path d="M3 23V20.1412C3 12.9562 8.76875 7.02499 15.9537 6.99999C17.6648 6.9939 19.3603 7.32567 20.9428 7.97625C22.5254 8.62684 23.964 9.58344 25.1761 10.7912C26.3881 11.999 27.3498 13.4341 28.006 15.0144C28.6622 16.5947 29 18.2889 29 20V23C29 23.2652 28.8946 23.5196 28.7071 23.7071C28.5196 23.8946 28.2652 24 28 24H4C3.73478 24 3.48043 23.8946 3.29289 23.7071C3.10536 23.5196 3 23.2652 3 23Z" stroke="currentColor" stroke-width="2" stroke-linecap="round" stroke-linejoin="round"></path>
<path d="M16 7V11" stroke="currentColor" stroke-width="2" stroke-linecap="round" stroke-linejoin="round"></path>
<path d="M13 24L21 13" stroke="currentColor" stroke-width="2" stroke-linecap="round" stroke-linejoin="round"></path>
<path d="M25 18H28.8475" stroke="currentColor" stroke-width="2" stroke-linecap="round" stroke-linejoin="round"></path>
<path d="M3.17374 18H6.99999" stroke="currentColor" stroke-width="2" stroke-linecap="round" stroke-linejoin="round"></path>
</g>
<defs>
<clipPath id="clip0_1_14">
<rect width="32" height="32" fill="white"></rect>
</clipPath>
</defs>
</svg>