<svg width="40" height="40" viewBox="0 0 40 40" fill="none" xmlns="http://www.w3.org/2000/svg">
<path d="M21.25 6.25V33.75C21.25 34.0815 21.1183 34.3995 20.8839 34.6339C20.6495 34.8683 20.3315 35 20 35C19.6685 35 19.3505 34.8683 19.1161 34.6339C18.8817 34.3995 18.75 34.0815 18.75 33.75V6.25C18.75 5.91848 18.8817 5.60054 19.1161 5.36612C19.3505 5.1317 19.6685 5 20 5C20.3315 5 20.6495 5.1317 20.8839 5.36612C21.1183 5.60054 21.25 5.91848 21.25 6.25ZM15 18.75H5.51719L8.38438 15.8844C8.61893 15.6498 8.7507 15.3317 8.7507 15C8.7507 14.6683 8.61893 14.3502 8.38438 14.1156C8.14983 13.8811 7.83171 13.7493 7.50001 13.7493C7.1683 13.7493 6.85018 13.8811 6.61563 14.1156L1.61563 19.1156C1.49941 19.2317 1.40721 19.3696 1.34431 19.5213C1.2814 19.6731 1.24902 19.8357 1.24902 20C1.24902 20.1643 1.2814 20.3269 1.34431 20.4787C1.40721 20.6304 1.49941 20.7683 1.61563 20.8844L6.61563 25.8844C6.85018 26.1189 7.1683 26.2507 7.50001 26.2507C7.83171 26.2507 8.14983 26.1189 8.38438 25.8844C8.61893 25.6498 8.7507 25.3317 8.7507 25C8.7507 24.6683 8.61893 24.3502 8.38438 24.1156L5.51719 21.25H15C15.3315 21.25 15.6495 21.1183 15.8839 20.8839C16.1183 20.6495 16.25 20.3315 16.25 20C16.25 19.6685 16.1183 19.3505 15.8839 19.1161C15.6495 18.8817 15.3315 18.75 15 18.75ZM38.3844 19.1156L33.3844 14.1156C33.1498 13.8811 32.8317 13.7493 32.5 13.7493C32.1683 13.7493 31.8502 13.8811 31.6156 14.1156C31.3811 14.3502 31.2493 14.6683 31.2493 15C31.2493 15.3317 31.3811 15.6498 31.6156 15.8844L34.4828 18.75H25C24.6685 18.75 24.3505 18.8817 24.1161 19.1161C23.8817 19.3505 23.75 19.6685 23.75 20C23.75 20.3315 23.8817 20.6495 24.1161 20.8839C24.3505 21.1183 24.6685 21.25 25 21.25H34.4828L31.6156 24.1156C31.3811 24.3502 31.2493 24.6683 31.2493 25C31.2493 25.3317 31.3811 25.6498 31.6156 25.8844C31.8502 26.1189 32.1683 26.2507 32.5 26.2507C32.8317 26.2507 33.1498 26.1189 33.3844 25.8844L38.3844 20.8844C38.5006 20.7683 38.5928 20.6304 38.6557 20.4787C38.7186 20.3269 38.751 20.1643 38.751 20C38.751 19.8357 38.7186 19.6731 38.6557 19.5213C38.5928 19.3696 38.5006 19.2317 38.3844 19.1156Z" fill="#0F62FE"/>
</svg>
