<svg width="40" height="40" viewBox="0 0 40 40" fill="none" xmlns="http://www.w3.org/2000/svg">
<path d="M20 27.5C21.9885 27.4979 23.8949 26.7071 25.301 25.301C26.7071 23.8949 27.4979 21.9885 27.5 20V10C27.5 8.01088 26.7098 6.10322 25.3033 4.6967C23.8968 3.29018 21.9891 2.5 20 2.5C18.0109 2.5 16.1032 3.29018 14.6967 4.6967C13.2902 6.10322 12.5 8.01088 12.5 10V20C12.5021 21.9885 13.2929 23.8949 14.699 25.301C16.1051 26.7071 18.0115 27.4979 20 27.5ZM15 10C15 8.67392 15.5268 7.40215 16.4645 6.46447C17.4021 5.52678 18.6739 5 20 5C21.3261 5 22.5979 5.52678 23.5355 6.46447C24.4732 7.40215 25 8.67392 25 10V20C25 21.3261 24.4732 22.5979 23.5355 23.5355C22.5979 24.4732 21.3261 25 20 25C18.6739 25 17.4021 24.4732 16.4645 23.5355C15.5268 22.5979 15 21.3261 15 20V10ZM21.25 32.4375V36.25C21.25 36.5815 21.1183 36.8995 20.8839 37.1339C20.6495 37.3683 20.3315 37.5 20 37.5C19.6685 37.5 19.3505 37.3683 19.1161 37.1339C18.8817 36.8995 18.75 36.5815 18.75 36.25V32.4375C15.6682 32.1239 12.8121 30.6787 10.7341 28.3813C8.65613 26.084 7.50381 23.0977 7.5 20C7.5 19.6685 7.6317 19.3505 7.86612 19.1161C8.10054 18.8817 8.41848 18.75 8.75 18.75C9.08152 18.75 9.39946 18.8817 9.63388 19.1161C9.8683 19.3505 10 19.6685 10 20C10 22.6522 11.0536 25.1957 12.9289 27.0711C14.8043 28.9464 17.3478 30 20 30C22.6522 30 25.1957 28.9464 27.0711 27.0711C28.9464 25.1957 30 22.6522 30 20C30 19.6685 30.1317 19.3505 30.3661 19.1161C30.6005 18.8817 30.9185 18.75 31.25 18.75C31.5815 18.75 31.8995 18.8817 32.1339 19.1161C32.3683 19.3505 32.5 19.6685 32.5 20C32.4962 23.0977 31.3439 26.084 29.2659 28.3813C27.1879 30.6787 24.3318 32.1239 21.25 32.4375Z" fill="#0F62FE"/>
</svg>
