<svg width="40" height="40" viewBox="0 0 40 40" fill="none" xmlns="http://www.w3.org/2000/svg">
<path d="M35 7.5V11.875C35 12.2065 34.8683 12.5245 34.6339 12.7589C34.3995 12.9933 34.0815 13.125 33.75 13.125C33.4185 13.125 33.1005 12.9933 32.8661 12.7589C32.6317 12.5245 32.5 12.2065 32.5 11.875V7.5H28.125C27.7935 7.5 27.4755 7.3683 27.2411 7.13388C27.0067 6.89946 26.875 6.58152 26.875 6.25C26.875 5.91848 27.0067 5.60054 27.2411 5.36612C27.4755 5.1317 27.7935 5 28.125 5H32.5C33.163 5 33.7989 5.26339 34.2678 5.73223C34.7366 6.20107 35 6.83696 35 7.5ZM33.75 26.875C33.4185 26.875 33.1005 27.0067 32.8661 27.2411C32.6317 27.4755 32.5 27.7935 32.5 28.125V32.5H28.125C27.7935 32.5 27.4755 32.6317 27.2411 32.8661C27.0067 33.1005 26.875 33.4185 26.875 33.75C26.875 34.0815 27.0067 34.3995 27.2411 34.6339C27.4755 34.8683 27.7935 35 28.125 35H32.5C33.163 35 33.7989 34.7366 34.2678 34.2678C34.7366 33.7989 35 33.163 35 32.5V28.125C35 27.7935 34.8683 27.4755 34.6339 27.2411C34.3995 27.0067 34.0815 26.875 33.75 26.875ZM11.875 32.5H7.5V28.125C7.5 27.7935 7.3683 27.4755 7.13388 27.2411C6.89946 27.0067 6.58152 26.875 6.25 26.875C5.91848 26.875 5.60054 27.0067 5.36612 27.2411C5.1317 27.4755 5 27.7935 5 28.125V32.5C5 33.163 5.26339 33.7989 5.73223 34.2678C6.20107 34.7366 6.83696 35 7.5 35H11.875C12.2065 35 12.5245 34.8683 12.7589 34.6339C12.9933 34.3995 13.125 34.0815 13.125 33.75C13.125 33.4185 12.9933 33.1005 12.7589 32.8661C12.5245 32.6317 12.2065 32.5 11.875 32.5ZM6.25 13.125C6.58152 13.125 6.89946 12.9933 7.13388 12.7589C7.3683 12.5245 7.5 12.2065 7.5 11.875V7.5H11.875C12.2065 7.5 12.5245 7.3683 12.7589 7.13388C12.9933 6.89946 13.125 6.58152 13.125 6.25C13.125 5.91848 12.9933 5.60054 12.7589 5.36612C12.5245 5.1317 12.2065 5 11.875 5H7.5C6.83696 5 6.20107 5.26339 5.73223 5.73223C5.26339 6.20107 5 6.83696 5 7.5V11.875C5 12.2065 5.1317 12.5245 5.36612 12.7589C5.60054 12.9933 5.91848 13.125 6.25 13.125ZM27.5 27.5C27.3058 27.5004 27.1142 27.4556 26.9403 27.3691C26.7665 27.2826 26.6152 27.1567 26.4984 27.0016C25.7416 25.9925 24.7602 25.1734 23.632 24.6093C22.5038 24.0452 21.2598 23.7516 19.9984 23.7516C18.7371 23.7516 17.493 24.0452 16.3648 24.6093C15.2366 25.1734 14.2553 25.9925 13.4984 27.0016C13.2991 27.2668 13.0026 27.442 12.6741 27.4885C12.3456 27.5351 12.0121 27.4493 11.7469 27.25C11.4817 27.0507 11.3065 26.7542 11.2599 26.4257C11.2133 26.0972 11.2991 25.7637 11.4984 25.4984C12.6062 24.0151 14.0827 22.8473 15.7812 22.1109C14.8505 21.2612 14.1984 20.1498 13.9105 18.9228C13.6227 17.6958 13.7125 16.4104 14.1682 15.2353C14.6239 14.0603 15.4243 13.0505 16.4642 12.3384C17.5041 11.6263 18.735 11.2453 19.9953 11.2453C21.2556 11.2453 22.4865 11.6263 23.5264 12.3384C24.5664 13.0505 25.3667 14.0603 25.8224 15.2353C26.2781 16.4104 26.368 17.6958 26.0801 18.9228C25.7922 20.1498 25.1401 21.2612 24.2094 22.1109C25.9091 22.8469 27.3867 24.0147 28.4953 25.4984C28.6348 25.6838 28.72 25.9044 28.7412 26.1354C28.7625 26.3664 28.719 26.5988 28.6157 26.8066C28.5124 27.0143 28.3534 27.1892 28.1563 27.3117C27.9593 27.4341 27.732 27.4993 27.5 27.5ZM20 21.25C20.7417 21.25 21.4667 21.0301 22.0834 20.618C22.7001 20.206 23.1807 19.6203 23.4645 18.9351C23.7484 18.2498 23.8226 17.4958 23.6779 16.7684C23.5333 16.041 23.1761 15.3728 22.6517 14.8483C22.1272 14.3239 21.459 13.9667 20.7316 13.8221C20.0042 13.6774 19.2502 13.7516 18.5649 14.0355C17.8797 14.3193 17.294 14.7999 16.882 15.4166C16.4699 16.0333 16.25 16.7583 16.25 17.5C16.25 18.4946 16.6451 19.4484 17.3483 20.1517C18.0516 20.8549 19.0054 21.25 20 21.25Z" fill="#0F62FE"/>
</svg>
