<svg width="40" height="40" viewBox="0 0 40 40" fill="none" xmlns="http://www.w3.org/2000/svg">
<path d="M32.5 21.25H7.5C6.83696 21.25 6.20107 21.5134 5.73223 21.9822C5.26339 22.4511 5 23.087 5 23.75V31.25C5 31.913 5.26339 32.5489 5.73223 33.0178C6.20107 33.4866 6.83696 33.75 7.5 33.75H32.5C33.163 33.75 33.7989 33.4866 34.2678 33.0178C34.7366 32.5489 35 31.913 35 31.25V23.75C35 23.087 34.7366 22.4511 34.2678 21.9822C33.7989 21.5134 33.163 21.25 32.5 21.25ZM32.5 31.25H7.5V23.75H32.5V31.25ZM32.5 6.25H7.5C6.83696 6.25 6.20107 6.51339 5.73223 6.98223C5.26339 7.45107 5 8.08696 5 8.75V16.25C5 16.913 5.26339 17.5489 5.73223 18.0178C6.20107 18.4866 6.83696 18.75 7.5 18.75H32.5C33.163 18.75 33.7989 18.4866 34.2678 18.0178C34.7366 17.5489 35 16.913 35 16.25V8.75C35 8.08696 34.7366 7.45107 34.2678 6.98223C33.7989 6.51339 33.163 6.25 32.5 6.25ZM32.5 16.25H7.5V8.75H32.5V16.25ZM30 12.5C30 12.8708 29.89 13.2334 29.684 13.5417C29.478 13.85 29.1851 14.0904 28.8425 14.2323C28.4999 14.3742 28.1229 14.4113 27.7592 14.339C27.3955 14.2666 27.0614 14.088 26.7992 13.8258C26.537 13.5636 26.3584 13.2295 26.286 12.8658C26.2137 12.5021 26.2508 12.1251 26.3927 11.7825C26.5346 11.4399 26.775 11.147 27.0833 10.941C27.3916 10.735 27.7542 10.625 28.125 10.625C28.6223 10.625 29.0992 10.8225 29.4508 11.1742C29.8025 11.5258 30 12.0027 30 12.5ZM30 27.5C30 27.8708 29.89 28.2334 29.684 28.5417C29.478 28.85 29.1851 29.0904 28.8425 29.2323C28.4999 29.3742 28.1229 29.4113 27.7592 29.339C27.3955 29.2666 27.0614 29.088 26.7992 28.8258C26.537 28.5636 26.3584 28.2295 26.286 27.8658C26.2137 27.5021 26.2508 27.1251 26.3927 26.7825C26.5346 26.4399 26.775 26.147 27.0833 25.941C27.3916 25.735 27.7542 25.625 28.125 25.625C28.6223 25.625 29.0992 25.8225 29.4508 26.1742C29.8025 26.5258 30 27.0027 30 27.5Z" fill="#0F62FE"/>
</svg>
