<svg width="40" height="40" viewBox="0 0 40 40" fill="none" xmlns="http://www.w3.org/2000/svg">
<path d="M36.4905 22.2233C36.3302 22.0626 36.1291 21.9487 35.9089 21.8936C35.6887 21.8386 35.4576 21.8445 35.2405 21.9108C32.8571 22.6314 30.3227 22.6918 27.9076 22.0856C25.4925 21.4795 23.2871 20.2294 21.5264 18.4687C19.7657 16.708 18.5156 14.5026 17.9095 12.0875C17.3033 9.67237 17.3637 7.13805 18.0843 4.75457C18.1512 4.53739 18.1576 4.30608 18.1028 4.08553C18.0481 3.86498 17.9342 3.66352 17.7735 3.50284C17.6128 3.34215 17.4114 3.2283 17.1908 3.17355C16.9703 3.11879 16.739 3.1252 16.5218 3.19207C13.2265 4.20152 10.3336 6.22456 8.2546 8.97332C6.43649 11.3872 5.32749 14.2602 5.0522 17.2695C4.7769 20.2789 5.34621 23.3054 6.69617 26.0091C8.04613 28.7127 10.1233 30.9864 12.6942 32.5746C15.2651 34.1629 18.228 35.0027 21.2499 34.9999C24.7754 35.0107 28.2072 33.8646 31.0187 31.7374C33.7674 29.6584 35.7905 26.7655 36.7999 23.4702C36.866 23.2538 36.8721 23.0236 36.8177 22.804C36.7632 22.5844 36.6501 22.3837 36.4905 22.2233ZM29.5155 29.7405C26.8679 31.7347 23.5891 32.7053 20.2826 32.4738C16.9762 32.2423 13.8646 30.8242 11.5208 28.4805C9.1769 26.1368 7.75853 23.0254 7.52674 19.7189C7.29495 16.4125 8.26534 13.1336 10.2593 10.4858C11.5584 8.77029 13.2378 7.37964 15.1655 6.42332C15.0557 7.19399 15.0004 7.97143 14.9999 8.74988C15.0045 13.0583 16.718 17.1889 19.7644 20.2353C22.8109 23.2818 26.9415 24.9953 31.2499 24.9999C32.0299 24.9996 32.8089 24.9443 33.5812 24.8343C32.6239 26.7623 31.2322 28.4418 29.5155 29.7405Z" fill="#0F62FE"/>
</svg>
