<svg width="40" height="40" viewBox="0 0 40 40" fill="none" xmlns="http://www.w3.org/2000/svg">
<path d="M24.7906 30.6938L19.7906 38.1938C19.6995 38.3304 19.5824 38.4478 19.4459 38.5392C19.3095 38.6306 19.1563 38.6942 18.9953 38.7264C18.67 38.7914 18.3322 38.7246 18.0562 38.5406C17.7803 38.3566 17.5887 38.0705 17.5236 37.7453C17.4586 37.42 17.5254 37.0822 17.7094 36.8063L22.7094 29.3063C22.8934 29.0303 23.1795 28.8387 23.5047 28.7736C23.83 28.7086 24.1678 28.7754 24.4438 28.9594C24.7197 29.1434 24.9113 29.4295 24.9764 29.7547C25.0414 30.08 24.9746 30.4178 24.7906 30.6938ZM36.25 14.375C36.2467 17.5234 34.9945 20.542 32.7682 22.7682C30.542 24.9945 27.5234 26.2467 24.375 26.25H20.6687L16.0406 33.1938C15.9495 33.3304 15.8324 33.4478 15.6959 33.5392C15.5595 33.6306 15.4063 33.6942 15.2453 33.7264C15.0842 33.7586 14.9184 33.7588 14.7573 33.7269C14.5962 33.695 14.4429 33.6317 14.3062 33.5406C14.1696 33.4495 14.0522 33.3324 13.9608 33.1959C13.8694 33.0595 13.8058 32.9063 13.7736 32.7453C13.7414 32.5842 13.7412 32.4184 13.7731 32.2573C13.805 32.0962 13.8683 31.9429 13.9594 31.8063L17.6641 26.25H11.875C9.72012 26.25 7.65349 25.394 6.12976 23.8702C4.60602 22.3465 3.75 20.2799 3.75 18.125C3.75 15.9701 4.60602 13.9035 6.12976 12.3798C7.65349 10.856 9.72012 10 11.875 10C12.3421 10.0004 12.8083 10.0401 13.2687 10.1188C14.2656 7.52933 16.1369 5.3702 18.5584 4.01545C20.9799 2.66071 23.799 2.1957 26.5273 2.701C29.2556 3.20629 31.7212 4.65005 33.4969 6.78214C35.2726 8.91423 36.2466 11.6003 36.25 14.375ZM33.75 14.375C33.74 11.9407 32.7845 9.60557 31.0851 7.86255C29.3858 6.11953 27.0757 5.10504 24.6424 5.03326C22.2092 4.96148 19.8432 5.83802 18.0441 7.47784C16.245 9.11765 15.1535 11.3924 15 13.8219C14.9906 13.986 14.9489 14.1467 14.8773 14.2948C14.8058 14.4428 14.7058 14.5753 14.5831 14.6847C14.3352 14.9056 14.0096 15.0191 13.6781 15C13.3466 14.9809 13.0362 14.831 12.8153 14.5831C12.5944 14.3352 12.4809 14.0096 12.5 13.6781C12.5219 13.2969 12.562 12.9203 12.6203 12.5484C12.3731 12.5167 12.1242 12.5005 11.875 12.5C10.3832 12.5 8.95242 13.0926 7.89752 14.1475C6.84263 15.2024 6.25 16.6332 6.25 18.125C6.25 19.6168 6.84263 21.0476 7.89752 22.1025C8.95242 23.1574 10.3832 23.75 11.875 23.75H24.375C26.8605 23.7471 29.2434 22.7585 31.0009 21.0009C32.7585 19.2434 33.7471 16.8605 33.75 14.375Z" fill="#0F62FE"/>
</svg>
