<svg width="105" height="54" viewBox="0 0 105 54" fill="none" xmlns="http://www.w3.org/2000/svg">
<path fill-rule="evenodd" clip-rule="evenodd" d="M20.5074 4.35352C21.6687 4.35352 22.83 4.35352 23.9913 4.35352C29.8293 5.5953 33.2648 9.17595 34.2978 15.0955C34.4429 17.8034 34.4913 20.5131 34.4429 23.2245C32.6042 23.2245 30.7655 23.2245 28.9268 23.2245C28.9751 20.4164 28.9267 17.6099 28.7816 14.8051C28.0911 12.7603 26.7846 11.2603 24.8623 10.3051C20.8975 9.07764 17.9458 10.2873 16.0074 13.9342C15.5926 17.0082 15.4475 20.105 15.572 23.2245C13.7333 23.2245 11.8945 23.2245 10.0558 23.2245C10.0075 20.4164 10.0559 17.6099 10.201 14.8051C11.3619 9.04765 14.7974 5.56377 20.5074 4.35352Z" fill="#9D9EA1"/>
<path fill-rule="evenodd" clip-rule="evenodd" d="M53.8947 7.83896C57.8294 7.27365 61.3133 8.2414 64.3463 10.7422C63.5763 11.8982 62.7054 12.9627 61.7334 13.9357C59.7031 12.5304 57.4772 11.9981 55.056 12.339C53.1651 13.1278 52.8748 14.2891 54.185 15.8228C56.7012 16.8874 59.2171 17.9518 61.7334 19.0164C65.037 21.2258 65.8594 24.1775 64.2011 27.8712C62.8862 29.7638 61.0961 30.9734 58.8301 31.5002C55.3219 32.0915 52.0314 31.5109 48.9592 29.7583C48.2781 29.4643 47.7941 28.9804 47.5076 28.3067C48.3742 27.106 49.3418 25.9931 50.4108 24.968C52.6103 26.7761 55.1265 27.5019 57.9592 27.1454C59.7252 26.4451 60.1122 25.2838 59.1205 23.6615C56.05 22.3177 53.0501 20.8661 50.1205 19.3067C47.1026 15.5179 47.4896 12.1308 51.2818 9.14541C52.1794 8.6966 53.0504 8.26111 53.8947 7.83896Z" fill="#9D9EA1"/>
<path fill-rule="evenodd" clip-rule="evenodd" d="M71.6043 7.83843C75.6046 7.10942 79.0885 8.07716 82.0559 10.7417C81.2859 11.8977 80.415 12.9622 79.443 13.9352C77.2464 12.2512 74.8271 11.8157 72.1849 12.6288C71.0236 13.6933 71.0236 14.7578 72.1849 15.8223C75.1668 17.0232 78.07 18.378 80.8946 19.8868C83.819 23.5266 83.5287 26.9138 80.0236 30.0481C76.7912 31.6853 73.404 32.0724 69.8623 31.2094C68.1692 30.509 66.6209 29.5896 65.2172 28.4513C66.0841 27.198 67.052 26.0367 68.1204 24.9675C70.3199 26.7756 72.8361 27.5014 75.6688 27.1449C77.2827 26.7216 77.8148 25.7055 77.2656 24.0965C77.0237 23.8546 76.7816 23.6126 76.5397 23.3707C73.8926 22.2891 71.2797 21.1278 68.701 19.8868C65.8634 17.3629 65.331 14.4112 67.1043 11.032C68.4043 9.63669 69.9041 8.57219 71.6043 7.83843Z" fill="#9D9EA1"/>
<path fill-rule="evenodd" clip-rule="evenodd" d="M100.346 26.9999C100.346 28.4515 100.346 29.9031 100.346 31.3547C95.2171 31.3547 90.0882 31.3547 84.9591 31.3547C84.9591 23.6128 84.9591 15.8709 84.9591 8.12891C86.701 8.12891 88.443 8.12891 90.1849 8.12891C90.1849 14.4192 90.1849 20.7095 90.1849 26.9999C93.5721 26.9999 96.959 26.9999 100.346 26.9999Z" fill="#9D9EA1"/>
<path fill-rule="evenodd" clip-rule="evenodd" d="M5.99139 26.709C16.7333 26.709 27.4753 26.709 38.2172 26.709C38.2172 34.2574 38.2172 41.8058 38.2172 49.3541C27.4753 49.3541 16.7333 49.3541 5.99139 49.3541C5.99139 41.8058 5.99139 34.2574 5.99139 26.709Z" fill="#9D9EA1"/>
<path fill-rule="evenodd" clip-rule="evenodd" d="M5.99139 26.7102C5.99139 26.6135 5.99139 26.5167 5.99139 26.4199C16.8301 26.4199 27.6688 26.4199 38.5075 26.4199C38.5075 34.065 38.5075 41.7103 38.5075 49.3554C38.4108 49.3554 38.3139 49.3554 38.2172 49.3554C38.2172 41.807 38.2172 34.2586 38.2172 26.7102C27.4753 26.7102 16.7333 26.7102 5.99139 26.7102Z" fill="#C6C8D6"/>
<path fill-rule="evenodd" clip-rule="evenodd" d="M27.4752 32.2256C28.5045 32.9097 29.2303 33.7808 29.6526 34.8385C26.6127 37.5878 23.6611 40.4426 20.7977 43.403C20.6042 43.5967 20.4107 43.5967 20.2171 43.403C18.5719 41.7577 16.9268 40.1128 15.2816 38.4675C16.012 37.6886 16.7862 36.9628 17.6042 36.2901C18.671 37.3158 19.7355 38.2353 20.7977 39.0482C23.0823 36.8121 25.3081 34.538 27.4752 32.2256Z" fill="#0C1117"/>
<path d="M50.756 45.144C50.316 45.144 49.912 45.092 49.544 44.988C49.184 44.884 48.864 44.74 48.584 44.556C48.312 44.372 48.084 44.168 47.9 43.944C47.724 43.712 47.6 43.472 47.528 43.224L48.896 42.804C49 43.1 49.204 43.36 49.508 43.584C49.812 43.808 50.188 43.924 50.636 43.932C51.156 43.932 51.568 43.824 51.872 43.608C52.176 43.392 52.328 43.108 52.328 42.756C52.328 42.436 52.2 42.176 51.944 41.976C51.688 41.768 51.344 41.608 50.912 41.496L49.88 41.232C49.488 41.128 49.132 40.976 48.812 40.776C48.5 40.576 48.252 40.324 48.068 40.02C47.892 39.716 47.804 39.356 47.804 38.94C47.804 38.156 48.06 37.548 48.572 37.116C49.084 36.676 49.816 36.456 50.768 36.456C51.304 36.456 51.772 36.54 52.172 36.708C52.58 36.868 52.916 37.092 53.18 37.38C53.444 37.66 53.64 37.98 53.768 38.34L52.424 38.772C52.304 38.452 52.096 38.188 51.8 37.98C51.504 37.772 51.136 37.668 50.696 37.668C50.24 37.668 49.88 37.776 49.616 37.992C49.36 38.208 49.232 38.508 49.232 38.892C49.232 39.204 49.332 39.448 49.532 39.624C49.74 39.792 50.02 39.92 50.372 40.008L51.404 40.26C52.156 40.444 52.74 40.76 53.156 41.208C53.572 41.656 53.78 42.152 53.78 42.696C53.78 43.176 53.664 43.6 53.432 43.968C53.2 44.336 52.856 44.624 52.4 44.832C51.952 45.04 51.404 45.144 50.756 45.144ZM56.6402 45V36.6H58.0322V45H56.6402ZM57.7442 45V43.728H61.8482V45H57.7442ZM57.7442 41.352V40.104H61.3682V41.352H57.7442ZM57.7442 37.872V36.6H61.8122V37.872H57.7442ZM68.6743 45.144C67.8663 45.144 67.1463 44.96 66.5143 44.592C65.8903 44.216 65.3983 43.704 65.0383 43.056C64.6863 42.4 64.5103 41.648 64.5103 40.8C64.5103 39.952 64.6863 39.204 65.0383 38.556C65.3983 37.9 65.8903 37.388 66.5143 37.02C67.1383 36.644 67.8543 36.456 68.6623 36.456C69.2063 36.456 69.7183 36.556 70.1983 36.756C70.6783 36.948 71.1023 37.216 71.4703 37.56C71.8463 37.904 72.1343 38.304 72.3343 38.76L71.0623 39.276C70.9183 38.972 70.7223 38.704 70.4743 38.472C70.2343 38.232 69.9583 38.048 69.6463 37.92C69.3343 37.792 69.0063 37.728 68.6623 37.728C68.1343 37.728 67.6623 37.86 67.2463 38.124C66.8383 38.388 66.5143 38.752 66.2743 39.216C66.0423 39.672 65.9263 40.2 65.9263 40.8C65.9263 41.4 66.0423 41.932 66.2743 42.396C66.5143 42.86 66.8423 43.224 67.2583 43.488C67.6823 43.752 68.1623 43.884 68.6983 43.884C69.0503 43.884 69.3783 43.816 69.6823 43.68C69.9943 43.536 70.2703 43.34 70.5103 43.092C70.7583 42.844 70.9543 42.556 71.0983 42.228L72.3703 42.744C72.1703 43.216 71.8863 43.636 71.5183 44.004C71.1503 44.364 70.7223 44.644 70.2343 44.844C69.7463 45.044 69.2263 45.144 68.6743 45.144ZM78.2342 45.168C77.5702 45.168 76.9862 45.036 76.4822 44.772C75.9862 44.5 75.5982 44.12 75.3182 43.632C75.0462 43.144 74.9102 42.576 74.9102 41.928H76.3022C76.3022 42.32 76.3822 42.664 76.5422 42.96C76.7102 43.248 76.9422 43.476 77.2382 43.644C77.5342 43.804 77.8742 43.884 78.2582 43.884C78.6502 43.884 78.9942 43.804 79.2902 43.644C79.5942 43.476 79.8262 43.248 79.9862 42.96C80.1462 42.664 80.2262 42.32 80.2262 41.928H81.6182C81.6182 42.576 81.4782 43.144 81.1982 43.632C80.9262 44.12 80.5342 44.5 80.0222 44.772C79.5182 45.036 78.9222 45.168 78.2342 45.168ZM74.9102 41.928V36.6H76.3022V41.928H74.9102ZM80.2262 41.928V36.6H81.6182V41.928H80.2262ZM86.0712 41.904V40.62H87.8352C88.1072 40.62 88.3472 40.56 88.5552 40.44C88.7712 40.32 88.9432 40.156 89.0712 39.948C89.2072 39.74 89.2752 39.504 89.2752 39.24C89.2752 38.84 89.1312 38.512 88.8432 38.256C88.5552 38 88.1832 37.872 87.7272 37.872H86.0712V36.6L87.7752 36.588C88.3512 36.58 88.8592 36.692 89.2992 36.924C89.7392 37.148 90.0832 37.46 90.3312 37.86C90.5792 38.26 90.7032 38.72 90.7032 39.24C90.7032 39.76 90.5712 40.22 90.3072 40.62C90.0512 41.02 89.6952 41.336 89.2392 41.568C88.7832 41.792 88.2672 41.904 87.6912 41.904H86.0712ZM84.8112 45V36.6H86.2032V45H84.8112ZM89.4672 45L87.4992 41.592L88.5792 40.848L91.0392 45H89.4672ZM93.7718 45V36.6H95.1638V45H93.7718ZM94.8758 45V43.728H98.9798V45H94.8758ZM94.8758 41.352V40.104H98.4998V41.352H94.8758ZM94.8758 37.872V36.6H98.9438V37.872H94.8758Z" fill="#9D9EA1"/>
</svg>
