<svg width="57" height="54" viewBox="0 0 57 54" fill="none" xmlns="http://www.w3.org/2000/svg">
<path opacity="0.988" fill-rule="evenodd" clip-rule="evenodd" d="M28.1169 6.26532C33.8398 8.05373 39.5627 9.84214 45.2857 11.6306C45.3043 17.6984 45.2845 23.7657 45.226 29.8326C44.736 35.1781 42.4509 39.5697 38.3705 43.0072C37.3852 43.785 36.3386 44.4737 35.2308 45.0738C32.8956 46.2546 30.5508 47.4139 28.1964 48.5513C25.8336 47.3896 23.4756 46.2172 21.1222 45.0341C15.8679 42.1141 12.6421 37.6961 11.445 31.78C11.3361 31.1611 11.2567 30.5385 11.2065 29.9121C11.1478 23.8187 11.128 17.7249 11.1469 11.6306C16.8144 9.86495 22.4711 8.07654 28.1169 6.26532ZM35.668 14.8497C36.6524 14.7433 37.5797 14.9221 38.45 15.3862C38.6402 15.5101 38.819 15.6492 38.9865 15.8035C38.7014 16.188 38.3636 16.5325 37.973 16.8368C37.4734 16.4252 36.8972 16.2398 36.2442 16.2804C35.0487 16.2629 34.6247 16.8193 34.9725 17.9496C35.1669 18.176 35.412 18.3151 35.7077 18.3669C36.3351 18.4471 36.9577 18.553 37.5756 18.6848C38.7315 19.0405 39.3011 19.8287 39.2845 21.0495C39.1845 22.3484 38.5089 23.1763 37.2577 23.5334C36.2282 23.7696 35.2082 23.7299 34.1975 23.4142C33.6865 23.2317 33.2493 22.9402 32.886 22.5399C33.2371 22.1888 33.5881 21.8377 33.9392 21.4867C34.5421 22.0012 35.2442 22.2397 36.0455 22.202C36.4742 22.2276 36.8782 22.1415 37.2577 21.9437C37.5993 21.6248 37.7119 21.234 37.5955 20.7713C37.4755 20.3692 37.204 20.1373 36.7808 20.0758C36.1959 19.9942 35.613 19.9014 35.0321 19.7976C33.5968 19.367 33.0073 18.4066 33.2636 16.9163C33.476 15.9752 34.039 15.3459 34.9526 15.0285C35.1943 14.9606 35.4327 14.901 35.668 14.8497ZM20.3274 14.8894C20.7744 14.8767 21.2182 14.89 21.6588 14.9292C22.708 17.8187 23.7612 20.7066 24.8183 23.593C24.2491 23.6394 23.6795 23.646 23.1094 23.6129C22.9334 23.1183 22.7612 22.6215 22.5927 22.1226C21.5329 22.0696 20.4731 22.0696 19.4133 22.1226C19.2448 22.6215 19.0726 23.1183 18.8967 23.6129C18.3272 23.6328 17.7575 23.6394 17.1877 23.6328C18.2343 20.7183 19.2809 17.8039 20.3274 14.8894ZM25.8913 14.8894C27.799 14.8894 29.7066 14.8894 31.6143 14.8894C31.6143 15.3929 31.6143 15.8962 31.6143 16.3996C30.263 16.3996 28.9118 16.3996 27.5605 16.3996C27.5605 17.0885 27.5605 17.7774 27.5605 18.4663C28.7131 18.4663 29.8656 18.4663 31.0181 18.4663C31.0181 18.9697 31.0181 19.4731 31.0181 19.9765C29.8656 19.9765 28.7131 19.9765 27.5605 19.9765C27.5605 20.6918 27.5605 21.4072 27.5605 22.1226C28.9118 22.1226 30.263 22.1226 31.6143 22.1226C31.6143 22.626 31.6143 23.1294 31.6143 23.6328C29.7066 23.6328 27.799 23.6328 25.8913 23.6328C25.8913 20.7183 25.8913 17.8039 25.8913 14.8894ZM20.4466 26.375C21.3718 26.2641 22.2329 26.443 23.0299 26.9115C23.9713 27.6429 24.2562 28.5769 23.8843 29.7134C23.7808 29.9095 23.6615 30.095 23.5267 30.2698C22.4 31.4163 21.2806 32.5688 20.1684 33.7274C21.4664 33.7671 22.7647 33.7803 24.0632 33.7671C24.0632 34.2308 24.0632 34.6944 24.0632 35.1581C22.0231 35.1581 19.9829 35.1581 17.9428 35.1581C17.9362 34.681 17.9428 34.2041 17.9627 33.7274C19.3427 32.3739 20.694 30.9961 22.0165 29.5941C22.2756 29.1443 22.3021 28.6806 22.0959 28.2032C21.9224 27.9673 21.6906 27.8282 21.4004 27.7859C20.8706 27.672 20.4003 27.7847 19.9896 28.1237C19.8163 28.3457 19.7434 28.5974 19.771 28.8788C19.1616 28.8788 18.5522 28.8788 17.9428 28.8788C18.027 27.6485 18.6629 26.8603 19.8505 26.5141C20.055 26.4694 20.2537 26.4231 20.4466 26.375ZM25.8913 26.4147C27.799 26.4147 29.7066 26.4147 31.6143 26.4147C31.6143 26.8917 31.6143 27.3686 31.6143 27.8455C30.2498 27.8455 28.8853 27.8455 27.5208 27.8455C27.5075 28.4819 27.5208 29.1178 27.5605 29.7531C28.0116 29.4349 28.5149 29.2892 29.0707 29.3159C30.7855 29.3549 31.7062 30.2292 31.8328 31.9389C31.9733 33.7713 31.1453 34.851 29.3489 35.178C28.4538 35.307 27.6059 35.1612 26.8054 34.7408C26.089 34.2688 25.7181 33.5998 25.6926 32.7338C26.2894 32.7206 26.8855 32.7338 27.481 32.7735C27.6057 33.4746 28.023 33.8191 28.7329 33.8068C29.4835 33.838 29.9074 33.4803 30.0047 32.7338C30.048 32.2785 30.0215 31.8281 29.9252 31.3826C29.7273 30.8527 29.3431 30.601 28.7727 30.6274C28.222 30.6012 27.8179 30.8264 27.5605 31.3031C27.0048 31.3428 26.4484 31.356 25.8913 31.3428C25.8913 29.7001 25.8913 28.0574 25.8913 26.4147ZM35.9064 26.4147C36.5561 26.4015 37.2052 26.4148 37.8538 26.4545C37.17 27.6434 36.4811 28.8291 35.7872 30.0114C36.8988 29.7642 37.846 30.0491 38.6288 30.8659C39.3808 31.9437 39.394 33.03 38.6685 34.1248C37.9698 34.877 37.1021 35.2479 36.0654 35.2376C35.2043 35.2442 34.436 34.9859 33.7603 34.4626C32.9997 33.694 32.7679 32.7866 33.0649 31.7402C33.1553 31.469 33.2613 31.204 33.3828 30.9454C34.235 29.4394 35.0763 27.9292 35.9064 26.4147Z" fill="white"/>
<path opacity="0.988" fill-rule="evenodd" clip-rule="evenodd" d="M28.1169 6.26532C33.8398 8.05373 39.5627 9.84214 45.2857 11.6306C45.3043 17.6984 45.2845 23.7657 45.226 29.8326C44.736 35.1781 42.4509 39.5697 38.3705 43.0072C37.3852 43.785 36.3386 44.4737 35.2308 45.0738C32.8956 46.2546 30.5508 47.4139 28.1964 48.5513C25.8336 47.3896 23.4756 46.2172 21.1222 45.0341C15.8679 42.1141 12.6421 37.6961 11.445 31.78C11.3361 31.1611 11.2567 30.5385 11.2065 29.9121C11.1478 23.8187 11.128 17.7249 11.1469 11.6306C16.8144 9.86495 22.4711 8.07654 28.1169 6.26532ZM35.668 14.8497C36.6524 14.7433 37.5797 14.9221 38.45 15.3862C38.6402 15.5101 38.819 15.6492 38.9865 15.8035C38.7014 16.188 38.3636 16.5325 37.973 16.8368C37.4734 16.4252 36.8972 16.2398 36.2443 16.2804C35.0487 16.2629 34.6247 16.8193 34.9725 17.9496C35.1669 18.176 35.412 18.3151 35.7077 18.3669C36.3351 18.4471 36.9577 18.553 37.5756 18.6848C38.7315 19.0405 39.3011 19.8287 39.2845 21.0495C39.1845 22.3484 38.5089 23.1763 37.2577 23.5334C36.2282 23.7696 35.2082 23.7299 34.1975 23.4142C33.6865 23.2317 33.2493 22.9402 32.886 22.5399C33.2371 22.1888 33.5881 21.8377 33.9392 21.4867C34.5421 22.0012 35.2443 22.2397 36.0455 22.202C36.4742 22.2276 36.8782 22.1415 37.2577 21.9437C37.5993 21.6248 37.7119 21.234 37.5955 20.7713C37.4755 20.3692 37.204 20.1373 36.7808 20.0758C36.1959 19.9942 35.613 19.9014 35.0321 19.7976C33.5968 19.367 33.0073 18.4066 33.2636 16.9163C33.476 15.9752 34.039 15.3459 34.9526 15.0285C35.1943 14.9606 35.4327 14.901 35.668 14.8497ZM20.3274 14.8894C20.7744 14.8767 21.2182 14.89 21.6588 14.9292C22.708 17.8187 23.7612 20.7066 24.8183 23.593C24.2491 23.6394 23.6795 23.646 23.1094 23.6129C22.9334 23.1183 22.7612 22.6215 22.5927 22.1226C21.5329 22.0696 20.4731 22.0696 19.4133 22.1226C19.2448 22.6215 19.0726 23.1183 18.8967 23.6129C18.3272 23.6328 17.7575 23.6394 17.1877 23.6328C18.2343 20.7183 19.2809 17.8039 20.3274 14.8894ZM25.8913 14.8894C27.799 14.8894 29.7066 14.8894 31.6143 14.8894C31.6143 15.3929 31.6143 15.8962 31.6143 16.3996C30.263 16.3996 28.9118 16.3996 27.5605 16.3996C27.5605 17.0885 27.5605 17.7774 27.5605 18.4663C28.7131 18.4663 29.8656 18.4663 31.0181 18.4663C31.0181 18.9697 31.0181 19.4731 31.0181 19.9765C29.8656 19.9765 28.7131 19.9765 27.5605 19.9765C27.5605 20.6918 27.5605 21.4072 27.5605 22.1226C28.9118 22.1226 30.263 22.1226 31.6143 22.1226C31.6143 22.626 31.6143 23.1294 31.6143 23.6328C29.7066 23.6328 27.799 23.6328 25.8913 23.6328C25.8913 20.7183 25.8913 17.8039 25.8913 14.8894ZM20.4466 26.375C21.3718 26.2641 22.2329 26.443 23.0299 26.9115C23.9713 27.6429 24.2562 28.5769 23.8843 29.7134C23.7808 29.9095 23.6615 30.095 23.5267 30.2698C22.4 31.4163 21.2806 32.5688 20.1684 33.7274C21.4664 33.7671 22.7647 33.7803 24.0632 33.7671C24.0632 34.2308 24.0632 34.6944 24.0632 35.1581C22.0231 35.1581 19.9829 35.1581 17.9428 35.1581C17.9362 34.681 17.9428 34.2041 17.9627 33.7274C19.3427 32.3739 20.694 30.9961 22.0165 29.5941C22.2756 29.1443 22.3021 28.6806 22.0959 28.2032C21.9224 27.9673 21.6906 27.8282 21.4004 27.7859C20.8706 27.672 20.4003 27.7847 19.9896 28.1237C19.8163 28.3457 19.7434 28.5974 19.771 28.8788C19.1616 28.8788 18.5522 28.8788 17.9428 28.8788C18.027 27.6485 18.6629 26.8603 19.8505 26.5141C20.055 26.4694 20.2537 26.4231 20.4466 26.375ZM25.8913 26.4147C27.799 26.4147 29.7066 26.4147 31.6143 26.4147C31.6143 26.8917 31.6143 27.3686 31.6143 27.8455C30.2498 27.8455 28.8853 27.8455 27.5208 27.8455C27.5075 28.4819 27.5208 29.1178 27.5605 29.7531C28.0116 29.4349 28.5149 29.2892 29.0707 29.3159C30.7855 29.3549 31.7062 30.2292 31.8328 31.9389C31.9733 33.7713 31.1453 34.851 29.3489 35.178C28.4538 35.307 27.6059 35.1612 26.8054 34.7408C26.089 34.2688 25.7181 33.5998 25.6926 32.7338C26.2894 32.7206 26.8855 32.7338 27.481 32.7735C27.6058 33.4746 28.023 33.8191 28.7329 33.8068C29.4835 33.838 29.9074 33.4803 30.0047 32.7338C30.048 32.2785 30.0215 31.8281 29.9252 31.3826C29.7273 30.8527 29.3431 30.601 28.7727 30.6274C28.222 30.6012 27.8179 30.8264 27.5605 31.3031C27.0048 31.3428 26.4484 31.356 25.8913 31.3428C25.8913 29.7001 25.8913 28.0574 25.8913 26.4147ZM35.9064 26.4147C36.5561 26.4015 37.2052 26.4148 37.8538 26.4545C37.17 27.6434 36.4811 28.8291 35.7872 30.0114C36.8988 29.7642 37.846 30.0491 38.6288 30.8659C39.3808 31.9437 39.394 33.03 38.6685 34.1248C37.9698 34.877 37.1021 35.2479 36.0654 35.2376C35.2043 35.2442 34.436 34.9859 33.7603 34.4626C32.9997 33.694 32.7679 32.7866 33.0649 31.7402C33.1553 31.469 33.2613 31.204 33.3828 30.9454C34.235 29.4394 35.0763 27.9292 35.9064 26.4147Z" fill="#0C1217"/>
<path opacity="0.996" fill-rule="evenodd" clip-rule="evenodd" d="M28.0772 7.33835C28.1708 7.33186 28.2636 7.33848 28.3554 7.35822C33.6488 9.0344 38.9412 10.7102 44.2325 12.3856C44.259 18.0953 44.259 23.805 44.2325 29.5146C43.7583 35.1744 41.2479 39.672 36.7013 43.0072C36.1847 43.3583 35.6549 43.6895 35.1116 44.0008C32.8112 45.1577 30.5061 46.3034 28.1964 47.4385C25.6958 46.2279 23.2185 44.976 20.7646 43.6828C16.5226 41.0248 13.8002 37.2559 12.5975 32.3761C12.3908 31.4594 12.2584 30.532 12.2001 29.5941C12.1735 23.858 12.1735 18.1218 12.2001 12.3856C17.4988 10.7118 22.7912 9.02935 28.0772 7.33835ZM35.668 14.8497C35.4327 14.9009 35.1943 14.9606 34.9526 15.0285C34.039 15.3459 33.476 15.9751 33.2636 16.9163C33.0073 18.4065 33.5968 19.367 35.0321 19.7976C35.613 19.9014 36.1959 19.9941 36.7808 20.0758C37.2039 20.1373 37.4755 20.3691 37.5955 20.7713C37.7119 21.2339 37.5993 21.6248 37.2577 21.9437C36.8782 22.1415 36.4742 22.2276 36.0455 22.202C35.2442 22.2397 34.5421 22.0012 33.9392 21.4867C33.5881 21.8377 33.237 22.1888 32.886 22.5398C33.2493 22.9402 33.6865 23.2316 34.1975 23.4142C35.2082 23.7299 36.2282 23.7696 37.2577 23.5334C38.5088 23.1763 39.1845 22.3484 39.2845 21.0495C39.3011 19.8287 38.7315 19.0405 37.5756 18.6848C36.9577 18.553 36.3351 18.447 35.7077 18.3669C35.412 18.3151 35.1669 18.176 34.9725 17.9496C34.6247 16.8193 35.0487 16.2629 36.2442 16.2804C36.8972 16.2397 37.4734 16.4252 37.973 16.8368C38.3636 16.5324 38.7014 16.188 38.9865 15.8035C38.819 15.6492 38.6402 15.5101 38.4499 15.3862C37.5797 14.9221 36.6524 14.7432 35.668 14.8497ZM20.3274 14.8894C19.2809 17.8038 18.2343 20.7183 17.1877 23.6328C17.7575 23.6394 18.3272 23.6328 18.8967 23.6129C19.0726 23.1182 19.2448 22.6215 19.4133 22.1225C20.4731 22.0696 21.5329 22.0696 22.5927 22.1225C22.7612 22.6215 22.9334 23.1182 23.1094 23.6129C23.6795 23.646 24.2491 23.6394 24.8183 23.593C23.7612 20.7066 22.708 17.8186 21.6588 14.9292C21.2182 14.8899 20.7744 14.8767 20.3274 14.8894ZM25.8913 14.8894C25.8913 17.8038 25.8913 20.7183 25.8913 23.6328C27.799 23.6328 29.7066 23.6328 31.6142 23.6328C31.6142 23.1293 31.6142 22.626 31.6142 22.1225C30.263 22.1225 28.9118 22.1225 27.5605 22.1225C27.5605 21.4072 27.5605 20.6918 27.5605 19.9764C28.713 19.9764 29.8656 19.9764 31.0181 19.9764C31.0181 19.473 31.0181 18.9697 31.0181 18.4662C29.8656 18.4662 28.713 18.4662 27.5605 18.4662C27.5605 17.7774 27.5605 17.0885 27.5605 16.3996C28.9118 16.3996 30.263 16.3996 31.6142 16.3996C31.6142 15.8962 31.6142 15.3928 31.6142 14.8894C29.7066 14.8894 27.799 14.8894 25.8913 14.8894ZM20.4466 26.375C20.2537 26.423 20.055 26.4694 19.8505 26.5141C18.6629 26.8602 18.027 27.6485 17.9428 28.8788C18.5522 28.8788 19.1616 28.8788 19.771 28.8788C19.7434 28.5973 19.8163 28.3457 19.9896 28.1237C20.4003 27.7846 20.8706 27.672 21.4004 27.7858C21.6906 27.8282 21.9224 27.9673 22.0959 28.2031C22.3021 28.6806 22.2756 29.1443 22.0164 29.5941C20.694 30.9961 19.3427 32.3738 17.9627 33.7273C17.9428 34.204 17.9362 34.681 17.9428 35.1581C19.9829 35.1581 22.0231 35.1581 24.0632 35.1581C24.0632 34.6944 24.0632 34.2308 24.0632 33.7671C22.7647 33.7803 21.4664 33.7671 20.1684 33.7273C21.2806 32.5688 22.4 31.4162 23.5267 30.2697C23.6615 30.095 23.7808 29.9095 23.8843 29.7134C24.2562 28.5769 23.9713 27.6429 23.0299 26.9115C22.2329 26.4429 21.3718 26.2641 20.4466 26.375ZM25.8913 26.4147C25.8913 28.0574 25.8913 29.7001 25.8913 31.3428C26.4484 31.356 27.0048 31.3428 27.5605 31.303C27.8179 30.8264 28.2219 30.6012 28.7727 30.6274C29.3431 30.601 29.7273 30.8527 29.9252 31.3825C30.0214 31.828 30.048 32.2784 30.0047 32.7338C29.9074 33.4803 29.4835 33.838 28.7329 33.8068C28.023 33.8191 27.6057 33.4746 27.481 32.7735C26.8855 32.7338 26.2894 32.7205 25.6926 32.7338C25.7181 33.5998 26.089 34.2688 26.8054 34.7408C27.6059 35.1612 28.4538 35.3069 29.3489 35.1779C31.1453 34.851 31.9733 33.7713 31.8328 31.9389C31.7062 30.2292 30.7855 29.3549 29.0707 29.3159C28.5149 29.2892 28.0116 29.4349 27.5605 29.7531C27.5208 29.1178 27.5075 28.4819 27.5208 27.8455C28.8853 27.8455 30.2498 27.8455 31.6142 27.8455C31.6142 27.3685 31.6142 26.8916 31.6142 26.4147C29.7066 26.4147 27.799 26.4147 25.8913 26.4147ZM35.9064 26.4147C35.0763 27.9292 34.235 29.4394 33.3828 30.9454C33.2613 31.204 33.1553 31.4689 33.0648 31.7402C32.7679 32.7866 32.9997 33.694 33.7603 34.4626C34.436 34.9859 35.2043 35.2442 36.0654 35.2376C37.1021 35.2479 37.9698 34.877 38.6685 34.1248C39.394 33.03 39.3808 31.9437 38.6288 30.8659C37.846 30.0491 36.8988 29.7642 35.7872 30.0114C36.4811 28.829 37.17 27.6434 37.8538 26.4545C37.2052 26.4148 36.5561 26.4015 35.9064 26.4147Z" fill="#9E9FA2"/>
<path opacity="0.958" fill-rule="evenodd" clip-rule="evenodd" d="M21.003 17.4326C21.0276 17.437 21.0474 17.4503 21.0627 17.4724C21.4262 18.5431 21.7773 19.6161 22.1158 20.6915C21.3872 20.6915 20.6586 20.6915 19.93 20.6915C20.2717 19.6001 20.6294 18.5138 21.003 17.4326Z" fill="#9D9EA1"/>
<path opacity="0.98" fill-rule="evenodd" clip-rule="evenodd" d="M35.7474 31.2238C37.0759 31.1554 37.5991 31.778 37.3173 33.0917C37.2205 33.3872 37.0284 33.5925 36.741 33.7077C35.151 34.0651 34.5218 33.4491 34.8532 31.8597C35.0447 31.4959 35.3428 31.2839 35.7474 31.2238Z" fill="#9D9EA1"/>
</svg>
