<svg width="100" height="54" viewBox="0 0 100 54" fill="none" xmlns="http://www.w3.org/2000/svg">
<path d="M66.1175 30.6403L67.039 30.9168C66.9776 31.1779 66.8855 31.3929 66.7472 31.5618C66.609 31.7308 66.4554 31.869 66.2558 31.9458C66.0561 32.0379 65.8104 32.084 65.5032 32.084C65.1346 32.084 64.8428 32.0379 64.5971 31.9304C64.3667 31.8229 64.167 31.6386 63.9981 31.3622C63.8292 31.1011 63.737 30.7478 63.737 30.3332C63.737 29.7803 63.8906 29.3502 64.1824 29.043C64.4742 28.7359 64.9042 28.5977 65.4418 28.5977C65.8718 28.5977 66.1943 28.6898 66.4401 28.8588C66.6858 29.0277 66.8701 29.2888 66.9776 29.6574L66.0561 29.857C66.0254 29.7495 65.9947 29.6727 65.9486 29.6267C65.8872 29.5499 65.8257 29.4884 65.7336 29.4424C65.6414 29.3963 65.5493 29.3809 65.4571 29.3809C65.2268 29.3809 65.0425 29.4731 64.9196 29.6727C64.8274 29.811 64.7814 30.0413 64.7814 30.3332C64.7814 30.7018 64.8428 30.9628 64.9503 31.1011C65.0578 31.2393 65.2268 31.3161 65.4264 31.3161C65.6261 31.3161 65.7797 31.2547 65.8718 31.1471C65.9947 31.0089 66.0715 30.8553 66.1175 30.6403Z" fill="#999A9D"/>
<path d="M67.4077 30.3329C67.4077 29.78 67.5612 29.3499 67.8684 29.0428C68.1756 28.7356 68.6056 28.582 69.1585 28.582C69.7268 28.582 70.1568 28.7356 70.464 29.0274C70.7711 29.3346 70.9247 29.7493 70.9247 30.3022C70.9247 30.7015 70.8633 31.024 70.7251 31.2697C70.5868 31.5155 70.4025 31.7151 70.1414 31.8534C69.8957 31.9916 69.5732 32.0684 69.2046 32.0684C68.8206 32.0684 68.5135 32.0069 68.2524 31.8841C68.0066 31.7612 67.807 31.5769 67.638 31.3005C67.4691 31.024 67.4077 30.7322 67.4077 30.3329ZM68.452 30.3329C68.452 30.6708 68.5135 30.9165 68.6363 31.0701C68.7592 31.2237 68.9281 31.3005 69.1585 31.3005C69.3889 31.3005 69.5578 31.2237 69.6807 31.0854C69.8036 30.9319 69.865 30.6708 69.865 30.3022C69.865 29.9796 69.8036 29.7493 69.6653 29.611C69.5425 29.4575 69.3582 29.396 69.1432 29.396C68.9281 29.396 68.7592 29.4728 68.6363 29.6264C68.5135 29.7493 68.452 29.995 68.452 30.3329Z" fill="#999A9D"/>
<path d="M71.4623 28.6436H72.8292L73.3514 30.7016L73.8736 28.6436H75.2405V32.0224H74.3804V29.4422L73.72 32.0224H72.9521L72.2916 29.4422V32.0224H71.4316V28.6436H71.4623Z" fill="#999A9D"/>
<path d="M75.9162 28.6436H77.6517C78.0357 28.6436 78.3121 28.7357 78.4964 28.92C78.6807 29.1043 78.7729 29.35 78.7729 29.6879C78.7729 30.0258 78.6653 30.3023 78.4657 30.4866C78.266 30.6862 77.9435 30.7784 77.5288 30.7784H76.9606V32.0377H75.9162V28.6436ZM76.9606 30.0872H77.2217C77.4213 30.0872 77.5595 30.0565 77.6517 29.9797C77.7285 29.9029 77.7746 29.8261 77.7746 29.7186C77.7746 29.6111 77.7438 29.519 77.6671 29.4422C77.5903 29.3654 77.4674 29.3347 77.2677 29.3347H76.9759V30.0872H76.9606Z" fill="#999A9D"/>
<path d="M79.3257 28.6436H80.3701V31.193H81.9981V32.0224H79.3257V28.6436Z" fill="#999A9D"/>
<path d="M82.5203 28.6436H83.5646V32.0224H82.5203V28.6436Z" fill="#999A9D"/>
<path d="M86.3906 31.4539H85.208L85.0391 32.0068H83.9794L85.2541 28.6279H86.3906L87.6654 32.0068H86.5749L86.3906 31.4539ZM86.1756 30.732L85.807 29.5187L85.4384 30.732H86.1756Z" fill="#999A9D"/>
<path d="M87.9879 28.6436H88.9554L90.2302 30.5173V28.6436H91.2131V32.0224H90.2302L88.9708 30.164V32.0224H87.9879V28.6436Z" fill="#999A9D"/>
<path d="M91.6739 28.6436H94.8531V29.4729H93.7933V32.0224H92.749V29.4729H91.6892V28.6436H91.6739Z" fill="#999A9D"/>
<path d="M53.5545 33.7891L56.5801 32.8368L55.5972 30.6559C54.8753 31.5621 54.1535 32.7293 53.5545 33.7891ZM52.5255 23.8215L46.5972 10.6133L3.19446 13.0706L15.2201 45.8761L38.3651 38.5809C36.8907 36.4614 36.3531 33.9426 38.0579 32.714C39.9624 31.3317 42.8344 32.929 44.662 35.1867C46.4282 32.2379 51.389 25.3727 52.5255 23.8215Z" fill="#9C9DA0"/>
<path d="M45.2451 20.1579C47.0574 20.1579 48.5318 18.7757 48.5318 17.0555C48.5318 15.3354 47.0574 13.9531 45.2451 13.9531C43.4328 13.9531 41.9584 15.3354 41.9584 17.0555C41.9584 18.7603 43.4328 20.1579 45.2451 20.1579ZM42.5574 21.4941H47.9328V35.547H42.5574V21.4941Z" fill="#0C1217"/>
<path d="M39.9003 25.5952C39.9464 25.6106 39.9771 25.5952 39.9771 25.5492V21.986C39.9771 21.9399 39.9464 21.8939 39.9003 21.8632C39.9003 21.8632 39.1939 21.4024 37.0437 21.2795C36.9362 21.2181 35.0471 21.2027 34.5403 21.2795C26.7075 21.9092 26.4157 27.5765 26.4157 27.8222V29.2044C26.4157 29.3734 26.4157 35.1635 34.5403 35.6703C35.3389 35.7318 36.8901 35.6703 37.0437 35.6703C38.9174 35.6703 40.2075 35.1021 40.2075 35.1021C40.2536 35.0867 40.2843 35.0406 40.2843 34.9946V31.6618C40.2843 31.6157 40.2536 31.6004 40.2229 31.6311C40.2229 31.6311 39.6393 32.0918 37.0898 32.3529C36.3679 32.4297 36.0147 32.399 35.7536 32.3529C32.129 31.7386 31.9601 29.0969 31.9601 29.0969C31.9601 29.0509 31.9447 28.9741 31.9447 28.9434V27.9297C31.9447 27.8836 31.9447 27.8068 31.9601 27.7761C31.9601 27.7761 32.2058 24.9348 35.7536 24.6277H37.0898C38.641 24.8273 39.9003 25.5952 39.9003 25.5952Z" fill="#0C1217"/>
<path d="M11.4874 35.5012C11.4874 35.5473 11.5181 35.578 11.5642 35.578H16.8014C16.8474 35.578 16.8781 35.5473 16.8781 35.5012V31.4159C16.8781 31.3698 16.9089 31.3391 16.9549 31.3391C16.9549 31.3391 25.3252 31.9381 25.3252 26.3323C25.3252 21.8937 20.0727 21.4176 18.3526 21.4944C18.3218 21.4944 11.5642 21.4944 11.5642 21.4944C11.5181 21.4944 11.4874 21.5251 11.4874 21.5712V35.5012ZM16.786 28.2214V24.5507H18.0761C18.0761 24.5507 19.9345 24.6275 20.088 25.9023C20.1188 25.9944 20.1188 26.6241 20.088 26.6548C19.8423 28.1446 18.2297 28.2214 18.2297 28.2214H16.786Z" fill="#0C1217"/>
<path d="M45.3992 42.3283C45.8293 42.3283 46.1672 42.3283 46.7201 42.0826C48.6245 41.0843 55.0597 25.3727 61.848 20.5348C61.8941 20.5041 61.9402 20.458 61.9709 20.4119C62.017 20.3505 62.017 20.289 62.017 20.289C62.017 20.289 62.017 19.9665 61.0187 19.9665C54.9829 19.7976 48.7013 32.4682 45.3992 37.4751C45.3532 37.5365 45.1381 37.4751 45.1381 37.4751C45.1381 37.4751 42.9265 34.8641 41.0068 33.8658C40.9607 33.8505 40.7457 33.7737 40.5153 33.789C40.3617 33.789 39.4709 33.9733 39.0562 34.4034C38.5648 34.9256 38.5801 35.2174 38.5801 35.8471C38.5801 35.8931 38.6108 36.1082 38.6723 36.2157C39.1484 37.045 41.2832 39.9938 43.0494 41.6218C43.3105 41.8215 43.7252 42.3283 45.3992 42.3283Z" fill="#9C9DA0"/>
<path d="M63.6296 15.7881H68.6518C69.6501 15.7881 70.4488 15.9263 71.0477 16.1874C71.6621 16.4639 72.1689 16.8478 72.5528 17.3393C72.9522 17.8461 73.244 18.4297 73.4129 19.0901C73.5972 19.7505 73.6894 20.457 73.6894 21.2096C73.6894 22.3768 73.5511 23.283 73.29 23.928C73.029 24.5731 72.6604 25.1106 72.1842 25.556C71.7081 25.986 71.2013 26.2778 70.6638 26.4314C69.9266 26.6311 69.2508 26.7232 68.6518 26.7232H63.6296V15.7881ZM67.0085 18.2608V24.2352H67.8378C68.5443 24.2352 69.0511 24.1584 69.3429 24.0048C69.6348 23.8512 69.8805 23.5748 70.0494 23.1908C70.2184 22.8069 70.3105 22.1618 70.3105 21.2864C70.3105 20.1191 70.1262 19.3359 69.7423 18.9058C69.3583 18.4758 68.744 18.2608 67.8532 18.2608H67.0085Z" fill="#999A9D"/>
<path d="M74.6262 23.1145L77.8515 22.9148C77.9283 23.437 78.0665 23.8363 78.2815 24.1128C78.6348 24.5582 79.1262 24.7732 79.7713 24.7732C80.2474 24.7732 80.6313 24.6657 80.8924 24.4353C81.1535 24.2049 81.2917 23.9438 81.2917 23.652C81.2917 23.3756 81.1689 23.1145 80.9232 22.8841C80.6774 22.6537 80.0938 22.4541 79.1876 22.2544C77.6979 21.9165 76.6535 21.4711 76.0085 20.9182C75.3634 20.3653 75.0563 19.6588 75.0563 18.7988C75.0563 18.2305 75.2252 17.7083 75.5477 17.2015C75.8702 16.6947 76.3617 16.3107 77.0221 16.0189C77.6825 15.7271 78.5733 15.5889 79.7098 15.5889C81.1074 15.5889 82.1825 15.85 82.9044 16.3721C83.6416 16.8943 84.0716 17.7237 84.2098 18.8602L81.0153 19.0445C80.9231 18.553 80.7542 18.1998 80.4778 17.9694C80.2013 17.739 79.8327 17.6315 79.3566 17.6315C78.9573 17.6315 78.6655 17.7083 78.4658 17.8773C78.2662 18.0462 78.174 18.2459 78.174 18.4916C78.174 18.6605 78.2508 18.8295 78.4197 18.9677C78.5733 19.1059 78.9573 19.2442 79.5563 19.367C81.0307 19.6895 82.0904 20.0121 82.7354 20.3346C83.3805 20.6571 83.8412 21.0718 84.133 21.5479C84.4249 22.024 84.5631 22.5769 84.5631 23.1759C84.5631 23.8824 84.3634 24.5274 83.9795 25.1111C83.5955 25.71 83.0426 26.1554 82.3515 26.4626C81.6604 26.7698 80.7696 26.9233 79.7098 26.9233C77.8515 26.9233 76.5614 26.5701 75.8395 25.8483C75.133 25.1264 74.7337 24.2203 74.6262 23.1145Z" fill="#999A9D"/>
<path d="M85.4231 23.1145L88.6484 22.9148C88.7251 23.437 88.8634 23.8363 89.0784 24.1128C89.4316 24.5582 89.9231 24.7732 90.5681 24.7732C91.0443 24.7732 91.4282 24.6657 91.6893 24.4353C91.9504 24.2049 92.0886 23.9438 92.0886 23.652C92.0886 23.3756 91.9658 23.1145 91.72 22.8841C91.4743 22.6537 90.8907 22.4541 89.9845 22.2544C88.4948 21.9165 87.4504 21.4711 86.8053 20.9182C86.1757 20.3653 85.8531 19.6588 85.8531 18.7988C85.8531 18.2305 86.0221 17.7083 86.3446 17.2015C86.6671 16.6947 87.1586 16.3107 87.819 16.0189C88.4794 15.7271 89.3702 15.5889 90.5067 15.5889C91.9043 15.5889 92.9794 15.85 93.7012 16.3721C94.4384 16.8943 94.8685 17.7237 95.0067 18.8602L91.8122 19.0445C91.72 18.553 91.5511 18.1998 91.2746 17.9694C90.9982 17.739 90.6296 17.6315 90.1535 17.6315C89.7542 17.6315 89.4623 17.7083 89.2627 17.8773C89.063 18.0462 88.9709 18.2459 88.9709 18.4916C88.9709 18.6605 89.0477 18.8295 89.2166 18.9677C89.3702 19.1059 89.7541 19.2442 90.3531 19.367C91.8275 19.6895 92.8873 20.0121 93.5323 20.3346C94.1774 20.6571 94.6381 21.0718 94.9299 21.5479C95.2217 22.024 95.36 22.5769 95.36 23.1759C95.36 23.8824 95.1603 24.5274 94.7763 25.1111C94.3924 25.71 93.8395 26.1554 93.1483 26.4626C92.4572 26.7698 91.5664 26.9233 90.5067 26.9233C88.6483 26.9233 87.3582 26.5701 86.6364 25.8483C85.9146 25.1264 85.5152 24.2203 85.4231 23.1145Z" fill="#999A9D"/>
</svg>
