<svg xmlns="http://www.w3.org/2000/svg" width="100%" height="100%" viewBox="0 0 32 32" fill="none">
<path d="M17 10V15.4338L21.515 18.1425C21.7424 18.2791 21.9063 18.5004 21.9705 18.7578C22.0347 19.0152 21.9941 19.2876 21.8575 19.515C21.7209 19.7424 21.4996 19.9063 21.2422 19.9705C20.9848 20.0347 20.7124 19.9941 20.485 19.8575L15.485 16.8575C15.337 16.7686 15.2146 16.6429 15.1296 16.4926C15.0446 16.3424 14.9999 16.1726 15 16V10C15 9.73479 15.1054 9.48044 15.2929 9.2929C15.4804 9.10536 15.7348 9.00001 16 9.00001C16.2652 9.00001 16.5196 9.10536 16.7071 9.2929C16.8946 9.48044 17 9.73479 17 10ZM16 4.00001C14.4225 3.99608 12.8599 4.30505 11.4026 4.90904C9.94527 5.51303 8.62222 6.40005 7.51 7.51876C6.60125 8.43876 5.79375 9.32376 5 10.25V8.00001C5 7.73479 4.89464 7.48044 4.70711 7.2929C4.51957 7.10536 4.26522 7.00001 4 7.00001C3.73478 7.00001 3.48043 7.10536 3.29289 7.2929C3.10536 7.48044 3 7.73479 3 8.00001V13C3 13.2652 3.10536 13.5196 3.29289 13.7071C3.48043 13.8946 3.73478 14 4 14H9C9.26522 14 9.51957 13.8946 9.70711 13.7071C9.89464 13.5196 10 13.2652 10 13C10 12.7348 9.89464 12.4804 9.70711 12.2929C9.51957 12.1054 9.26522 12 9 12H6.125C7.01875 10.9475 7.90875 9.95626 8.92375 8.92876C10.3136 7.53895 12.0821 6.58952 14.0085 6.1991C15.9348 5.80869 17.9335 5.9946 19.7547 6.73361C21.576 7.47262 23.1391 8.73196 24.2487 10.3543C25.3584 11.9766 25.9653 13.8899 25.9938 15.8552C26.0222 17.8205 25.4708 19.7506 24.4086 21.4043C23.3463 23.058 21.8203 24.362 20.0212 25.1534C18.2221 25.9448 16.2296 26.1885 14.2928 25.8539C12.356 25.5194 10.5607 24.6215 9.13125 23.2725C9.03571 23.1822 8.92333 23.1116 8.80052 23.0648C8.6777 23.0179 8.54686 22.9957 8.41547 22.9994C8.28407 23.0032 8.15469 23.0327 8.03472 23.0864C7.91475 23.1402 7.80653 23.217 7.71625 23.3125C7.62597 23.408 7.55538 23.5204 7.50853 23.6432C7.46168 23.7661 7.43948 23.8969 7.44319 24.0283C7.44691 24.1597 7.47647 24.2891 7.53018 24.409C7.58389 24.529 7.66071 24.6372 7.75625 24.7275C9.18056 26.0716 10.9122 27.0467 12.8 27.5676C14.6878 28.0886 16.6744 28.1396 18.5865 27.7162C20.4986 27.2928 22.278 26.4079 23.7694 25.1387C25.2608 23.8695 26.4189 22.2545 27.1427 20.4348C27.8664 18.615 28.1338 16.6458 27.9215 14.699C27.7091 12.7522 27.0236 10.8869 25.9246 9.26592C24.8256 7.64498 23.3466 6.31763 21.6166 5.39974C19.8867 4.48184 17.9584 4.00128 16 4.00001Z" fill="currentColor"></path>
</svg>