<svg xmlns="http://www.w3.org/2000/svg" width="100%" height="100%" viewBox="0 0 32 32" fill="none">
<path d="M28.0007 8.8875C27.7653 9.0094 27.4911 9.03284 27.2384 8.95268C26.9858 8.87252 26.7752 8.69531 26.6532 8.46C25.6987 6.57436 24.2539 4.98062 22.4707 3.84625C22.3595 3.77616 22.2633 3.68486 22.1875 3.57757C22.1116 3.47029 22.0576 3.34911 22.0286 3.22097C21.9996 3.09282 21.9961 2.96022 22.0183 2.83072C22.0406 2.70123 22.0881 2.57738 22.1582 2.46625C22.2283 2.35512 22.3196 2.25888 22.4268 2.18303C22.5341 2.10718 22.6553 2.05321 22.7835 2.02419C22.9116 1.99517 23.0442 1.99168 23.1737 2.01391C23.3032 2.03614 23.427 2.08366 23.5382 2.15375C25.6164 3.48442 27.304 5.3432 28.4282 7.54C28.5501 7.7754 28.5735 8.04956 28.4934 8.30224C28.4132 8.55492 28.236 8.76543 28.0007 8.8875ZM4.46442 9C4.64763 8.99992 4.82729 8.94952 4.9838 8.85429C5.14031 8.75906 5.26765 8.62267 5.35193 8.46C6.30643 6.57436 7.7512 4.98062 9.53442 3.84625C9.75886 3.70469 9.91788 3.47977 9.97648 3.22097C10.0351 2.96217 9.98848 2.69069 9.84692 2.46625C9.70537 2.24181 9.48045 2.0828 9.22165 2.02419C8.96285 1.96559 8.69137 2.01219 8.46693 2.15375C6.38868 3.48442 4.70115 5.3432 3.57693 7.54C3.49797 7.6924 3.45957 7.86255 3.46543 8.03409C3.47128 8.20563 3.52118 8.37277 3.61033 8.51943C3.69949 8.6661 3.82489 8.78735 3.97448 8.87151C4.12406 8.95568 4.29279 8.99993 4.46442 9ZM27.7269 21.9925C27.9041 22.2963 27.998 22.6414 27.9992 22.9931C28.0004 23.3448 27.9089 23.6906 27.7338 23.9956C27.5587 24.3006 27.3063 24.5541 27.002 24.7304C26.6978 24.9068 26.3524 24.9997 26.0007 25H20.9007C20.6712 26.1303 20.0579 27.1465 19.1649 27.8764C18.2719 28.6063 17.154 29.005 16.0007 29.005C14.8473 29.005 13.7294 28.6063 12.8364 27.8764C11.9434 27.1465 11.3302 26.1303 11.1007 25H6.00067C5.6492 24.9993 5.30412 24.906 5.00018 24.7295C4.69625 24.553 4.4442 24.2995 4.26942 23.9945C4.09465 23.6896 4.00332 23.344 4.00464 22.9925C4.00595 22.641 4.09987 22.2961 4.27692 21.9925C5.40317 20.0487 6.00067 17.285 6.00067 14C6.00067 11.3478 7.05424 8.80429 8.92961 6.92893C10.805 5.05357 13.3485 4 16.0007 4C18.6528 4 21.1964 5.05357 23.0717 6.92893C24.9471 8.80429 26.0007 11.3478 26.0007 14C26.0007 17.2837 26.5982 20.0475 27.7269 21.9925ZM18.8282 25H13.1732C13.3804 25.5843 13.7634 26.09 14.2698 26.4477C14.7761 26.8053 15.3808 26.9974 16.0007 26.9974C16.6206 26.9974 17.2253 26.8053 17.7316 26.4477C18.2379 26.09 18.621 25.5843 18.8282 25ZM26.0007 23C24.6707 20.7162 24.0007 17.6887 24.0007 14C24.0007 11.8783 23.1578 9.84343 21.6575 8.34314C20.1572 6.84285 18.1224 6 16.0007 6C13.8789 6 11.8441 6.84285 10.3438 8.34314C8.84353 9.84343 8.00068 11.8783 8.00068 14C8.00068 17.69 7.32818 20.7175 6.00067 23H26.0007Z" fill="currentColor"></path>
</svg>