<svg width="48" height="48" viewBox="0 0 32 32" fill="none" xmlns="http://www.w3.org/2000/svg">
<g clip-path="url(#clip0_2_40)">
<path d="M18 28H14" stroke="#0B47B8" stroke-width="2" stroke-linecap="round" stroke-linejoin="round"></path>
<path d="M16 14C16.8284 14 17.5 13.3284 17.5 12.5C17.5 11.6716 16.8284 11 16 11C15.1716 11 14.5 11.6716 14.5 12.5C14.5 13.3284 15.1716 14 16 14Z" fill="#0B47B8"></path>
<path d="M11.8512 24C4.68999 11.915 12.9837 4.06626 15.3862 2.21001C15.5617 2.07358 15.7777 1.99951 16 1.99951C16.2223 1.99951 16.4382 2.07358 16.6137 2.21001C19.0162 4.06626 27.31 11.915 20.1487 24H11.8512Z" stroke="#0B47B8" stroke-width="2" stroke-linecap="round" stroke-linejoin="round"></path>
<path d="M22.98 13.86L26.7687 18.405C26.8666 18.5225 26.9362 18.661 26.9722 18.8096C27.0081 18.9583 27.0095 19.1132 26.9762 19.2625L25.4312 26.2162C25.3944 26.3821 25.3159 26.5358 25.2033 26.6629C25.0906 26.7899 24.9473 26.8862 24.7871 26.9426C24.6269 26.9991 24.455 27.0137 24.2875 26.9853C24.12 26.9568 23.9626 26.8862 23.83 26.78L20.1487 24" stroke="#0B47B8" stroke-width="2" stroke-linecap="round" stroke-linejoin="round"></path>
<path d="M9.02 13.86L5.23125 18.405C5.13339 18.5225 5.0638 18.661 5.02782 18.8096C4.99185 18.9583 4.99046 19.1132 5.02375 19.2625L6.56875 26.2162C6.60558 26.3821 6.68405 26.5358 6.79674 26.6629C6.90944 26.7899 7.05265 26.8862 7.21287 26.9426C7.37309 26.9991 7.54504 27.0137 7.7125 26.9853C7.87996 26.9568 8.03741 26.8862 8.17 26.78L11.8512 24" stroke="#0B47B8" stroke-width="2" stroke-linecap="round" stroke-linejoin="round"></path>
</g>
<defs>
<clipPath id="clip0_2_40">
<rect width="32" height="32" fill="white"></rect>
</clipPath>
</defs>
</svg>